<?xml version="1.0" standalone="no"?>
<!DOCTYPE svg PUBLIC "-//W3C//DTD SVG 1.1//EN" "http://www.w3.org/Graphics/SVG/1.1/DTD/svg11.dtd" >
<svg xmlns="http://www.w3.org/2000/svg">
<metadata></metadata>
<defs>
<font id="catorze27_style_1black" horiz-adv-x="1024" >
<font-face units-per-em="2048" ascent="1892" descent="-156" />
<missing-glyph horiz-adv-x="512" />
<glyph horiz-adv-x="0" />
<glyph horiz-adv-x="682" />
<glyph unicode="&#xd;" horiz-adv-x="512" />
<glyph unicode=" "  horiz-adv-x="512" />
<glyph unicode="&#x09;" horiz-adv-x="512" />
<glyph unicode="&#xa0;" horiz-adv-x="512" />
<glyph unicode="!" horiz-adv-x="409" d="M76 319q0 54 37 91q38 37 91.5 37t90.5 -37q38 -37 38 -91t-38 -92q-37 -37 -90.5 -37t-91.5 37q-37 38 -37 92zM92 995v439h225v-439q0 -53 -10 -176q-14 -171 -16 -186l-10 -78h-152q-37 289 -37 440z" />
<glyph unicode="&#x22;" horiz-adv-x="768" d="M92 1257v177h225v-177q0 -78 -26 -221l-10 -43h-152q-37 154 -37 264zM451 1257v177h225v-177q0 -107 -29 -221l-8 -43h-152q-36 150 -36 264z" />
<glyph unicode="#" horiz-adv-x="1064" d="M29 481v211h118l56 254h-123v211h170l67 307l234 -63l-53 -244h182l68 307l233 -63l-53 -244h73v-211h-118l-56 -254h123v-211h-168l-65 -311l-238 68l53 243h-180l-65 -311l-238 68l53 243h-73zM397 692h181l55 254h-180z" />
<glyph unicode="$" horiz-adv-x="798" d="M82 506v94h225v-108q-4 -56 44 -79.5t96.5 0t44.5 79.5v14q0 27 -15 51l-305 354q-90 96 -90 222q0 102 58 182.5t153 116.5v155h211v-155q95 -33 154 -115t59 -184v-95h-225v109q4 56 -44 79.5t-96.5 0t-44.5 -79.5v-14q0 -27 19 -56l303 -356q88 -88 88 -215 q0 -102 -59 -184t-152 -115v-156h-211v154q-95 33 -154 115.5t-59 185.5z" />
<glyph unicode="%" horiz-adv-x="1556" d="M92 1018v115q0 131 92 223q94 94 226 94t223 -94q94 -91 94 -223v-115q0 -131 -94 -225q-93 -93 -223 -93t-226 93q-92 95 -92 225zM317 1004q-4 -56 44 -79.5t96.5 0t44.5 79.5v143q4 56 -44 79.5t-96.5 0t-44.5 -79.5v-143zM360 188l631 1262l201 -102l-631 -1262z M829 403v115q0 130 93 223q95 95 225 95q131 0 223 -95q94 -91 94 -223v-115q0 -131 -94 -225q-92 -92 -223 -92q-130 0 -225 92q-93 96 -93 225zM1055 389q-4 -56 44 -79.5t96 0t44 79.5v143q4 56 -44 79.5t-96 0t-44 -79.5v-143z" />
<glyph unicode="&#x26;" horiz-adv-x="819" d="M92 506v10q0 123 82 211q-82 91 -82 213v193q0 131 92 223q94 94 226 94t223 -94q94 -91 94 -223v-117h-225v131q4 56 -44 79.5t-96.5 0t-44.5 -79.5v-221q0 -36 24 -61.5t60 -30.5h390v-211h-64v-117q0 -131 -94 -225q-93 -93 -223 -93t-226 93q-92 95 -92 225zM317 492 q-4 -56 44 -79.5t96.5 0t44.5 79.5v131h-101q-35 -1 -59.5 -29t-24.5 -64v-38z" />
<glyph unicode="'" horiz-adv-x="409" d="M92 1257v177h225v-177q0 -78 -26 -221l-10 -43h-152q-37 154 -37 264z" />
<glyph unicode="(" horiz-adv-x="487" d="M82 819q0 272 31 520q28 226 59 340l31 101l203 -78q-1 -5 -11 -38t-16 -58q-22 -93 -45 -293q-27 -231 -27 -494q0 -255 25 -485q23 -214 49 -309l25 -88l-203 -78q-11 28 -35 108q-18 72 -53 322q-33 238 -33 530z" />
<glyph unicode=")" horiz-adv-x="487" d="M82 -63q1 5 11 38t16 58q18 76 43 293q28 240 28 493q0 265 -24 486q-23 208 -50 309l-24 88l203 78q12 -29 32 -109q18 -60 54 -321q35 -253 35 -531q0 -271 -31 -522q-27 -218 -60 -338l-30 -100z" />
<glyph unicode="*" horiz-adv-x="696" d="M92 1092v182h66l49 -10l-33 39l-33 57l158 90l33 -57l16 -47l17 47l32 57l158 -90l-33 -57l-33 -39l50 10h65v-182h-65l-50 8l33 -37l33 -57l-158 -91l-32 58l-17 47l-16 -47l-33 -58l-158 93l33 55l33 37l-49 -8h-66z" />
<glyph unicode="+" horiz-adv-x="1036" d="M57 666v211h349v352h225v-352h348v-211h-348v-359h-225v359h-349z" />
<glyph unicode="," horiz-adv-x="409" d="M92 37v385h225v-137q0 -61 -17 -122.5t-38 -96.5l-18 -29h-152z" />
<glyph unicode="-" horiz-adv-x="626" d="M57 666v211h512v-211h-512z" />
<glyph unicode="." horiz-adv-x="444" d="M76 319q0 54 37 91q38 37 91.5 37t90.5 -37q38 -37 38 -91t-38 -92q-37 -37 -90.5 -37t-91.5 37q-37 38 -37 92z" />
<glyph unicode="/" horiz-adv-x="1191" d="M86 51l819 1639l201 -103l-819 -1638z" />
<glyph unicode="0" d="M92 403v832q0 174 123 297t297 123t297 -123t123 -297v-832q0 -174 -123 -297q-122 -122 -297 -122q-177 0 -299 122q-121 124 -121 297zM317 389q0 -82 56.5 -138t138.5 -56q80 0 137.5 56.5t57.5 137.5v860q0 79 -57.5 137t-137.5 58q-81 0 -138 -57.5t-57 -137.5v-860 z" />
<glyph unicode="1" horiz-adv-x="645" d="M51 1427v211h481v-1638h-225v1427h-256z" />
<glyph unicode="2" d="M92 0v211l586 907q31 48 31 103v28q0 79 -57.5 137t-137.5 58q-81 0 -138 -57.5t-57 -137.5v-88h-225v74q0 174 123 297t297 123t297 -123t123 -297q0 -132 -80 -244l-504 -780h582v-211h-840z" />
<glyph unicode="3" d="M92 403v74h225v-88q0 -81 57.5 -137.5t137.5 -56.5q82 0 138.5 56t56.5 138v379q0 80 -57 137.5t-138 57.5h-264v211l313 253h-452v211h786v-211l-317 -260q149 -21 251 -141q103 -118 103 -272v-351q0 -174 -123 -297q-119 -122 -297 -122q-175 0 -297 122 q-123 123 -123 297z" />
<glyph unicode="4" horiz-adv-x="980" d="M92 451v211l572 976h225v-1638h-225v451h-572zM354 662h310v528z" />
<glyph unicode="5" d="M92 403v74h225v-88q0 -81 57.5 -137.5t137.5 -56.5q82 0 138.5 56t56.5 138v379q0 80 -57 137.5t-138 57.5h-403v675h786v-211h-561v-253h178q174 0 297 -123t123 -297v-351q0 -174 -123 -297q-119 -122 -297 -122q-175 0 -297 122q-123 123 -123 297z" />
<glyph unicode="6" d="M92 403v832q0 174 123 297t297 123t297 -123t123 -297v-45h-225v59q0 79 -57.5 137t-137.5 58q-81 0 -138 -57.5t-57 -137.5v-139q91 49 195 49q174 0 297 -123t123 -297v-336q0 -174 -123 -297q-122 -122 -297 -122q-177 0 -299 122q-121 124 -121 297zM317 389 q0 -82 56.5 -138t138.5 -56q80 0 137.5 56.5t57.5 137.5v365q0 81 -57.5 137.5t-137.5 56.5q-79 0 -134.5 -53.5t-60.5 -132.5v-373z" />
<glyph unicode="7" horiz-adv-x="925" d="M23 1427v211h782v-211l-348 -1427h-234l348 1427h-548z" />
<glyph unicode="8" horiz-adv-x="987" d="M74 403q0 199 153 322l105 100l-88 88q-154 124 -154 322q0 174 117 297q120 123 287 123q166 0 286 -123q119 -122 119 -297q0 -196 -156 -322l-90 -86l109 -102q151 -127 151 -322q0 -175 -122 -297t-297 -122t-297 122q-123 123 -123 297zM299 389q0 -80 57 -137 t138 -57t137.5 57t56.5 137v14q0 82 -61 140l-133 129l-134 -129q-61 -58 -61 -140v-14zM315 1235q0 -88 62 -141l117 -113l116 113q64 52 64 141v14q0 80 -52.5 137.5t-127.5 57.5t-127 -57.5t-52 -137.5v-14z" />
<glyph unicode="9" d="M92 403v46h225v-60q0 -79 57.5 -136.5t137.5 -57.5q81 0 138 57t57 137v137q-89 -47 -195 -47q-174 0 -297 123t-123 297v336q0 174 123 297t297 123q177 0 297 -123q123 -123 123 -297v-832q0 -174 -123 -297q-122 -122 -297 -122t-297 122q-123 123 -123 297zM317 885 q0 -81 57.5 -138t137.5 -57q78 0 136 54.5t59 132.5v372q0 82 -56.5 138.5t-138.5 56.5q-80 0 -137.5 -57t-57.5 -138v-364z" />
<glyph unicode=":" horiz-adv-x="444" d="M76 319q0 54 37 91q38 37 91.5 37t90.5 -37q38 -37 38 -91t-38 -92q-37 -37 -90.5 -37t-91.5 37q-37 38 -37 92zM76 1118q0 54 37 91q38 37 91.5 37t90.5 -37q38 -37 38 -91t-38 -92q-37 -37 -90.5 -37t-91.5 37q-37 38 -37 92z" />
<glyph unicode=";" horiz-adv-x="444" d="M76 1117.5q0 53.5 37 90.5q38 37 91.5 37t90.5 -37q38 -37 38 -90.5t-38 -91.5q-37 -37 -90.5 -37t-91.5 37q-37 38 -37 91.5zM92 37v385h225v-137q0 -61 -17 -122.5t-38 -96.5l-18 -29h-152z" />
<glyph unicode="&#x3c;" horiz-adv-x="751" d="M70 819l417 631l191 -123l-338 -508l338 -508l-191 -123z" />
<glyph unicode="=" horiz-adv-x="933" d="M57 465v211h820v-211h-820zM57 860v211h820v-211h-820z" />
<glyph unicode="&#x3e;" horiz-adv-x="751" d="M70 311l338 508l-338 508l188 123l420 -631l-420 -631z" />
<glyph unicode="?" horiz-adv-x="819" d="M92 1038v97q0 131 92 223q94 94 226 94t223 -94q94 -91 94 -223v-45q0 -66 -33 -142t-80 -119q-5 -8 -31.5 -44t-31.5 -44q-29 -40 -29 -84v-10q0 -25 -22 -76l-6 -16h-168q-29 69 -29 92v10q0 68 33 144t80 117l63 88q29 37 29 84v59q4 56 -44 79.5t-96.5 0t-44.5 -79.5 v-111h-225zM280 319q0 54 37 91q38 37 92 37t91 -37q38 -37 38 -91t-38 -92q-37 -37 -91 -37t-92 37q-37 38 -37 92z" />
<glyph unicode="@" horiz-adv-x="1638" d="M92 727v201q0 303 211 514q213 213 516 213q301 0 514 -213t213 -514v-217q0 -132 -94 -226q-92 -92 -223 -92q-119 0 -207 76q-88 -76 -203 -76q-130 0 -225 92q-92 95 -92 226v217q0 131 92 223q94 94 225 94q132 0 223 -94q95 -92 95 -223v-226q5 -36 30.5 -60 t61.5 -24q38 0 65 27.5t27 65.5v231q0 207 -147 354q-148 148 -355 148q-208 0 -356 -148q-146 -149 -146 -354v-229q0 -208 146 -357q148 -145 356 -145h359v-211h-359q-305 0 -516 211t-211 516zM727 696q-4 -56 44 -79.5t96 0t44 79.5v246q4 56 -44 79.5t-96 0t-44 -79.5 v-246z" />
<glyph unicode="A" horiz-adv-x="1028" d="M45 0l354 1638h226l358 -1638h-229l-54 246h-374l-52 -246h-229zM369 457h288l-145 692z" />
<glyph unicode="B" d="M92 0v1638h420q175 0 297 -122q123 -123 123 -297v-170q0 -190 -141 -316q141 -126 141 -313q0 -174 -123 -297t-297 -123h-420zM317 211h195q80 0 137.5 57t57.5 138v28q0 80 -57.5 137.5t-137.5 57.5h-195v-418zM317 840h203q79 5 133 60t54 134v199q0 79 -57.5 136.5 t-137.5 57.5h-195v-587z" />
<glyph unicode="C" d="M92 403v832q0 174 123 297t297 123t297 -123t123 -297v-74h-225v88q0 79 -57.5 137t-137.5 58q-81 0 -138 -57.5t-57 -137.5v-860q0 -82 56.5 -138t138.5 -56q80 0 137.5 56.5t57.5 137.5v88h225v-74q0 -174 -123 -297q-122 -122 -297 -122q-177 0 -299 122 q-121 124 -121 297z" />
<glyph unicode="D" d="M92 0v1638h420q175 0 297 -122q123 -123 123 -297v-799q0 -174 -123 -297t-297 -123h-420zM317 211h195q80 0 137.5 57t57.5 138v827q0 79 -57.5 136.5t-137.5 57.5h-195v-1216z" />
<glyph unicode="E" horiz-adv-x="860" d="M92 0v1638h684v-211h-459v-759h357v-209h-357v-248h459v-211h-684z" />
<glyph unicode="F" horiz-adv-x="849" d="M92 0v1638h715v-211h-490v-708h388v-209h-388v-510h-225z" />
<glyph unicode="G" d="M92 403v832q0 174 123 297t297 123t297 -123t123 -297v-74h-225v88q0 79 -57.5 137t-137.5 58q-81 0 -138 -57.5t-57 -137.5v-860q0 -82 56.5 -138t138.5 -56q80 0 137.5 56.5t57.5 137.5v70h-195v209h420v-265q0 -174 -123 -297q-122 -122 -297 -122q-177 0 -299 122 q-121 124 -121 297z" />
<glyph unicode="H" d="M92 0v1638h225v-970h390v970h225v-1638h-225v459h-390v-459h-225z" />
<glyph unicode="I" horiz-adv-x="444" d="M111 0v1638h225v-1638h-225z" />
<glyph unicode="J" horiz-adv-x="409" d="M-131 -301h131q38 0 65 27t27 65v1847h225v-1833q0 -132 -94 -223q-91 -94 -223 -94h-131v211z" />
<glyph unicode="K" d="M92 0v1638h225v-694l363 694h254l-356 -680l370 -958h-241l-267 692l-123 -233v-459h-225z" />
<glyph unicode="L" horiz-adv-x="837" d="M92 0v1638h225v-1427h437v-211h-662z" />
<glyph unicode="M" horiz-adv-x="1126" d="M92 0v1638h225l246 -421l246 421h225v-1638h-225v1190l-133 -229h-225l-134 229v-1190h-225z" />
<glyph unicode="N" horiz-adv-x="1075" d="M92 0v1638h225l441 -1054v1054h225v-1638h-225l-441 1053v-1053h-225z" />
<glyph unicode="O" d="M92 403v832q0 174 123 297t297 123t297 -123t123 -297v-832q0 -174 -123 -297q-122 -122 -297 -122q-177 0 -299 122q-121 124 -121 297zM317 389q0 -82 56.5 -138t138.5 -56q80 0 137.5 56.5t57.5 137.5v860q0 79 -57.5 137t-137.5 58q-81 0 -138 -57.5t-57 -137.5v-860 z" />
<glyph unicode="P" d="M92 0v1638h420q175 0 297 -122q123 -123 123 -297v-340q0 -174 -123 -297t-297 -123h-195v-459h-225zM317 668h195q80 0 137.5 57.5t57.5 136.5v371q0 79 -57.5 136.5t-137.5 57.5h-195v-759z" />
<glyph unicode="Q" d="M92 403v832q0 174 123 297t297 123t297 -123t123 -297v-832q0 -143 -88 -256q-84 -112 -219 -147v-307h-226v307q-136 35 -221 145q-86 115 -86 258zM317 389q0 -82 56.5 -138t138.5 -56q80 0 137.5 56.5t57.5 137.5v860q0 79 -57.5 137t-137.5 58q-81 0 -138 -57.5 t-57 -137.5v-860z" />
<glyph unicode="R" d="M92 0v1638h420q175 0 297 -122q123 -123 123 -297v-340q0 -193 -144 -316q144 -126 144 -315v-248h-225v264q0 76 -56 135q-54 57 -131 60h-203v-459h-225zM317 668h203q78 5 132.5 60.5t54.5 133.5v371q0 79 -57.5 136.5t-137.5 57.5h-195v-759z" />
<glyph unicode="S" horiz-adv-x="1003" d="M82 403v74h225v-88q0 -79 57.5 -136.5t137.5 -57.5q81 0 137.5 57t56.5 137v14q0 84 -59 140l-385 370q-154 127 -154 322q0 174 117 297q120 123 287 123t284 -123q119 -122 119 -297v-74h-225v88q0 80 -52 137.5t-126 57.5t-126 -57.5t-52 -137.5v-14q0 -89 61 -141 l385 -369q152 -128 152 -322q0 -174 -123 -297q-122 -122 -297 -122t-297 122q-123 123 -123 297z" />
<glyph unicode="T" horiz-adv-x="858" d="M49 1427v211h760v-211h-268v-1427h-226v1427h-266z" />
<glyph unicode="U" d="M92 403v1235h225v-1249q0 -82 56.5 -138t138.5 -56q80 0 137.5 56.5t57.5 137.5v1249h225v-1235q0 -174 -123 -297q-122 -122 -297 -122q-177 0 -299 122q-121 124 -121 297z" />
<glyph unicode="V" horiz-adv-x="968" d="M45 1638h229l211 -1046l209 1046h228l-324 -1638h-225z" />
<glyph unicode="W" horiz-adv-x="1126" d="M92 0v1638h225v-1189l134 229h225l133 -229v1189h225v-1638h-225l-246 422l-246 -422h-225z" />
<glyph unicode="X" horiz-adv-x="978" d="M53 0l309 854l-292 784h241l185 -493l174 493h239l-293 -813l310 -825h-242l-201 535l-188 -535h-242z" />
<glyph unicode="Y" horiz-adv-x="962" d="M45 1638h234l202 -782l203 782h234l-324 -1179v-459h-225v459z" />
<glyph unicode="Z" horiz-adv-x="1003" d="M92 0v211l555 1216h-538v211h786v-211l-555 -1216h571v-211h-819z" />
<glyph unicode="[" horiz-adv-x="665" d="M92 -102v1843h481v-211h-256v-1421h256v-211h-481z" />
<glyph unicode="\" horiz-adv-x="1191" d="M86 1587l201 103l819 -1639l-201 -102z" />
<glyph unicode="]" horiz-adv-x="665" d="M92 -102v211h256v1421h-256v211h481v-1843h-481z" />
<glyph unicode="_" d="M57 0h910v-197h-910v197z" />
<glyph unicode="`" horiz-adv-x="512" d="M47 1657l62 188l360 -137l-51 -160z" />
<glyph unicode="a" horiz-adv-x="800" d="M45 205l244 1229h225l242 -1229h-211l-39 205h-211l-39 -205h-211zM336 621h129l-64 333z" />
<glyph unicode="b" horiz-adv-x="819" d="M92 205v1229h318q131 0 223 -95q94 -91 94 -223v-170q0 -122 -82 -213q82 -88 82 -211q0 -131 -94 -225q-92 -92 -223 -92h-318zM317 416h93q38 0 65 27t27 65v29q0 35 -25 61t-61 31h-99v-213zM317 840h99q36 5 61 30.5t25 61.5v198q0 38 -27 65.5t-65 27.5h-93v-383z " />
<glyph unicode="c" horiz-adv-x="819" d="M92 506v627q0 131 92 223q94 94 226 94t223 -94q94 -91 94 -223v-117h-225v131v8q0 49 -44 71q-24 12 -48 12t-48 -12q-45 -22 -45 -71v-8v-655v-8q0 -50 44 -72q24 -12 48 -12q25 0 49 12q45 22 44 72v8v131h225v-117q0 -131 -94 -225q-93 -93 -223 -93t-226 93 q-92 95 -92 225z" />
<glyph unicode="d" horiz-adv-x="819" d="M92 205v1229h318q131 0 223 -95q94 -91 94 -223v-594q0 -131 -94 -225q-92 -92 -223 -92h-318zM317 416h93q38 0 65 27t27 65v622q0 38 -27 65.5t-65 27.5h-93v-807z" />
<glyph unicode="e" horiz-adv-x="698" d="M92 205v1229h522v-211h-297v-463h246v-209h-246v-135h297v-211h-522z" />
<glyph unicode="f" horiz-adv-x="657" d="M92 205v1229h522v-211h-297v-463h246v-209h-246v-346h-225z" />
<glyph unicode="g" horiz-adv-x="819" d="M92 506v627q0 131 92 223q94 94 226 94t223 -94q94 -91 94 -223v-117h-225v131v8q0 50 -44 71q-24 12 -48 12t-48 -12q-45 -21 -45 -71v-8v-655v-8q0 -50 44 -72q24 -11 48 -11t49 11q44 22 44 72v8v65h-92v211h317v-262q0 -131 -94 -225q-93 -93 -223 -93t-226 93 q-92 95 -92 225z" />
<glyph unicode="h" horiz-adv-x="819" d="M92 205v1229h225v-674h185v674h225v-1229h-225v346h-185v-346h-225z" />
<glyph unicode="i" horiz-adv-x="444" d="M111 205v1229h225v-1229h-225z" />
<glyph unicode="j" horiz-adv-x="409" d="M-80 92h80q38 0 65 27t27 65v1250h225v-1235q0 -133 -94 -224q-91 -94 -223 -94h-80v211z" />
<glyph unicode="k" horiz-adv-x="819" d="M92 205v1229h225v-379l179 379h247l-243 -516l243 -713h-237l-144 420l-45 -99v-321h-225z" />
<glyph unicode="l" horiz-adv-x="632" d="M92 205v1229h225v-1018h246v-211h-471z" />
<glyph unicode="m" horiz-adv-x="921" d="M92 205v1229h225l144 -299l143 299h225v-1229h-225v741l-45 -86h-197l-45 86v-741h-225z" />
<glyph unicode="n" horiz-adv-x="870" d="M92 205v1229h225l236 -637v637h225v-1229h-225l-236 635v-635h-225z" />
<glyph unicode="o" horiz-adv-x="819" d="M92 506v627q0 131 92 223q94 94 226 94t223 -94q94 -91 94 -223v-627q0 -131 -94 -225q-93 -93 -223 -93t-226 93q-92 95 -92 225zM317 492v-8q0 -50 44 -72q24 -12 48 -12q25 0 49 12q45 22 44 72v8v655v8q0 49 -44 71q-24 12 -48 12t-48 -12q-45 -22 -45 -71v-8v-655z " />
<glyph unicode="p" horiz-adv-x="819" d="M92 205v1229h318q131 0 223 -95q94 -91 94 -223v-248q0 -131 -94 -225q-92 -92 -223 -92h-93v-346h-225zM317 760h93q38 0 65 27.5t27 64.5v278q0 38 -27 65.5t-65 27.5h-93v-463z" />
<glyph unicode="q" horiz-adv-x="819" d="M92 506v627q0 131 92 223q94 94 226 94t223 -94q94 -91 94 -223v-627q0 -99 -56.5 -180t-148.5 -117v-209h-225v209q-93 35 -149 116.5t-56 180.5zM317 492v-8q0 -50 44 -72q24 -11 48 -11t49 11q44 22 44 72v8v655v8q0 50 -44 71q-24 12 -48 12t-48 -12q-45 -21 -45 -71 v-8v-655z" />
<glyph unicode="r" horiz-adv-x="819" d="M92 205v1229h318q131 0 223 -95q94 -91 94 -223v-248q0 -125 -82 -213q82 -91 82 -213v-237h-225v254q0 37 -27 64.5t-65 27.5h-93v-346h-225zM317 760h93q38 0 65 27.5t27 64.5v278q0 38 -27 65.5t-65 27.5h-93v-463z" />
<glyph unicode="s" horiz-adv-x="798" d="M82 506v94h225v-108v-8q0 -50 44 -72q24 -12 48 -12q25 0 49 12q45 22 44 72v8v14q0 27 -15 51l-305 354q-90 96 -90 222q0 131 92 223q94 94 225 94q133 0 224 -94q94 -91 94 -223v-95h-225v109v8q0 49 -44 71q-24 12 -48 12t-48 -12q-45 -22 -45 -71v-8v-14 q0 -27 19 -56l303 -356q88 -88 88 -215q0 -131 -94 -225q-93 -93 -224 -93q-129 0 -225 93q-92 95 -92 225z" />
<glyph unicode="t" horiz-adv-x="653" d="M49 1223v211h555v-211h-166v-1018h-225v1018h-164z" />
<glyph unicode="u" horiz-adv-x="819" d="M92 506v928h225v-942v-8q0 -50 44 -72q24 -12 48 -12q25 0 49 12q45 22 44 72v8v942h225v-928q0 -131 -94 -225q-93 -93 -223 -93t-226 93q-92 95 -92 225z" />
<glyph unicode="v" horiz-adv-x="800" d="M45 1434h211l145 -750l144 750h211l-242 -1229h-225z" />
<glyph unicode="w" horiz-adv-x="921" d="M92 205v1229h225v-742l45 86h197l45 -86v742h225v-1229h-225l-143 299l-144 -299h-225z" />
<glyph unicode="x" horiz-adv-x="800" d="M74 205l202 629l-202 600h237l92 -293l84 293h238l-203 -629l203 -600h-238l-92 291l-84 -291h-237z" />
<glyph unicode="y" horiz-adv-x="763" d="M39 1434h209l135 -529l133 529h209l-229 -883v-346h-226v346z" />
<glyph unicode="z" horiz-adv-x="819" d="M92 205v211l385 807h-368v211h602v-211l-385 -807h401v-211h-635z" />
<glyph unicode="{" horiz-adv-x="800" d="M82 819l143 146q4 4 4 8v604q0 69 47.5 116.5t116.5 47.5h316v-211h-254v-557q0 -83 -56 -154q56 -71 56 -153v-557h254v-211h-316q-69 0 -116.5 47t-47.5 116v605q0 4 -4 8z" />
<glyph unicode="|" horiz-adv-x="444" d="M111 -102v1843h225v-1843h-225z" />
<glyph unicode="}" horiz-adv-x="800" d="M92 -102v211h254v557q0 82 53 153q-53 71 -53 154v557h-254v211h316q68 0 115.5 -47.5t47.5 -116.5v-604q0 -4 4 -8l144 -146l-144 -145q-4 -4 -4 -8v-605q0 -69 -47 -116t-116 -47h-316z" />
<glyph unicode="&#xa2;" horiz-adv-x="819" d="M92 506v627q0 102 58 182.5t153 116.5v155h211v-155q95 -33 154 -115t59 -184v-117h-225v131q4 56 -44 79.5t-96.5 0t-44.5 -79.5v-655q-4 -56 44 -79.5t96.5 0t44.5 79.5v131h225v-117q0 -102 -59 -184t-152 -115v-156h-211v154q-95 33 -154 115.5t-59 185.5z" />
<glyph unicode="&#xa3;" horiz-adv-x="864" d="M37 205v211h115v717q0 131 92 223q94 94 225 94q132 0 223 -94q94 -91 94 -223v-117h-225v131q0 38 -27.5 65t-64.5 27q-38 0 -65 -27t-27 -65v-289h266v-211h-266v-231h424v-211h-764z" />
<glyph unicode="&#xa5;" horiz-adv-x="804" d="M43 295v209h248v47l-21 76h-227v211h172l-156 596h209l135 -529l134 529h208l-155 -596h170v-211h-225l-19 -76v-47h244v-209h-244v-90h-225v90h-248z" />
<glyph unicode="&#xa8;" horiz-adv-x="819" d="M142 1690q0 47 32 79q35 35 82.5 35t79.5 -35q35 -32 35 -79t-35 -82q-32 -32 -79.5 -32t-82.5 32q-32 35 -32 82zM449 1690q0 47 32 79q35 35 82.5 35t79.5 -35q35 -32 35 -79t-35 -82q-32 -32 -79.5 -32t-82.5 32q-32 35 -32 82z" />
<glyph unicode="&#xa9;" horiz-adv-x="1638" d="M92 711v217q0 303 211 514q213 213 516 213q301 0 514 -213t213 -514v-217q0 -303 -213 -516q-211 -211 -514 -211q-305 0 -516 211t-211 516zM317 696q0 -207 146 -356q148 -145 356 -145q207 0 355 145q147 147 147 356v246q0 207 -147 354q-148 148 -355 148 q-208 0 -356 -148q-146 -149 -146 -354v-246zM502 711v217q0 131 92 223q94 94 225 94q132 0 223 -94q95 -92 95 -223v-29h-226v43q4 56 -44 79.5t-96 0t-44 -79.5v-246q-4 -56 44 -79.5t96 0t44 79.5v43h226v-28q0 -131 -95 -226q-92 -92 -223 -92q-130 0 -225 92 q-92 95 -92 226z" />
<glyph unicode="&#xab;" horiz-adv-x="1202" d="M70 819l417 631l191 -123l-338 -508l338 -508l-191 -123zM520 819l418 631l190 -123l-337 -508l337 -508l-190 -123z" />
<glyph unicode="&#xad;" horiz-adv-x="626" d="M57 666v211h512v-211h-512z" />
<glyph unicode="&#xae;" horiz-adv-x="1638" d="M92 711v217q0 303 211 514q213 213 516 213q301 0 514 -213t213 -514v-217q0 -303 -213 -516q-211 -211 -514 -211q-305 0 -516 211t-211 516zM317 696q0 -207 146 -356q148 -145 356 -145q207 0 355 145q147 147 147 356v246q0 207 -147 354q-148 148 -355 148 q-208 0 -356 -148q-146 -149 -146 -354v-246zM502 410v141h225v-141h-225zM502 551v678h317q132 0 223 -94q95 -92 95 -224v-43q0 -125 -82 -213q82 -91 82 -213v-32h-226v49q0 35 -25 61t-61 31h-323zM727 760h92q38 0 65 27.5t27 64.5v74q0 38 -27 65t-65 27h-92v-258z " />
<glyph unicode="&#xb4;" horiz-adv-x="512" d="M47 1708l361 137l61 -188l-371 -109z" />
<glyph unicode="&#xb8;" horiz-adv-x="1075" d="M238 -295l47 78l24 -25q26 -20 72.5 -41.5t87.5 -21.5q37 0 59.5 30t22.5 70q0 64 -72 64h-151l88 141h151l-26 -43h71q127 0 127 -162q0 -76 -71 -141q-72 -66 -199 -66q-63 0 -122 27.5t-85 60.5z" />
<glyph unicode="&#xbb;" horiz-adv-x="1202" d="M70 311l338 508l-338 508l188 123l420 -631l-420 -631zM520 311l338 508l-338 508l189 123l419 -631l-419 -631z" />
<glyph unicode="&#x2c6;" horiz-adv-x="675" d="M88 1708l199 176h104l197 -176l-131 -145l-119 112l-119 -112z" />
<glyph unicode="&#x2da;" horiz-adv-x="675" d="M86 1690q0 104 74 178t178 74t178 -74t74 -178q0 -105 -74 -179q-73 -73 -178 -73t-178 73q-74 74 -74 179zM269 1698.5q-2 -22.5 9.5 -40t28.5 -29t39.5 -9.5t40.5 20t20 40.5t-9.5 40t-28.5 29t-39.5 9.5t-40.5 -20t-20 -40.5z" />
<glyph unicode="&#x2dc;" horiz-adv-x="409" d="M-115 1735l25 14q91 49 205 49q35 0 100 -24q67 -25 96 -25q31 0 59 5.5t41 10.5t13 7l25 12l73 -156l-22 -14q-89 -47 -199 -47q-41 0 -106 24q-67 25 -97 25q-31 0 -58.5 -5.5t-40.5 -10.5t-13 -7l-25 -14z" />
<glyph unicode="&#x401;" horiz-adv-x="860" d="M92 0v1638h684v-211h-459v-759h357v-209h-357v-248h459v-211h-684zM147 1894.5q0 47.5 35 79.5q35 35 80 35t80 -35q35 -32 35 -79.5t-35 -82.5q-35 -32 -80 -32t-80 32q-35 35 -35 82.5zM495 1894.5q0 47.5 35 79.5q35 35 80 35t80 -35q35 -32 35 -79.5t-35 -82.5 q-35 -32 -80 -32t-80 32q-35 35 -35 82.5z" />
<glyph unicode="&#x402;" horiz-adv-x="1247" d="M49 1427v211h760v-211h-268v-333q91 49 194 49q174 0 297 -123t123 -297v-303q0 -174 -123 -297t-297 -123h-51v211h51q80 0 137.5 57t57.5 138v331q0 79 -58 137t-137 58t-134 -54t-60 -133v-745h-226v1427h-266z" />
<glyph unicode="&#x403;" horiz-adv-x="849" d="M92 0v1638h715v-211h-490v-1427h-225zM244 1913l360 137l62 -188l-371 -109z" />
<glyph unicode="&#x404;" d="M92 403v832q0 174 123 297t297 123t297 -123t123 -297v-74h-225v88q0 79 -57.5 137t-137.5 58q-81 0 -138 -57.5t-57 -137.5v-356h357v-209h-357v-295q0 -82 56.5 -138t138.5 -56q80 0 137.5 56.5t57.5 137.5v88h225v-74q0 -174 -123 -297q-122 -122 -297 -122 q-177 0 -299 122q-121 124 -121 297z" />
<glyph unicode="&#x405;" horiz-adv-x="1003" d="M82 403v74h225v-88q0 -79 57.5 -136.5t137.5 -57.5q81 0 137.5 57t56.5 137v14q0 84 -59 140l-385 370q-154 127 -154 322q0 174 117 297q120 123 287 123t284 -123q119 -122 119 -297v-74h-225v88q0 80 -52 137.5t-126 57.5t-126 -57.5t-52 -137.5v-14q0 -89 61 -141 l385 -369q152 -128 152 -322q0 -174 -123 -297q-122 -122 -297 -122t-297 122q-123 123 -123 297z" />
<glyph unicode="&#x406;" horiz-adv-x="444" d="M111 0v1638h225v-1638h-225z" />
<glyph unicode="&#x407;" horiz-adv-x="444" d="M-45 1894.5q0 47.5 35 79.5q35 35 80 35t80 -35q35 -32 35 -79.5t-35 -82.5q-35 -32 -80 -32t-80 32q-35 35 -35 82.5zM111 0v1638h225v-1638h-225zM262 1894.5q0 47.5 35 79.5q35 35 80 35t80 -35q35 -32 35 -79.5t-35 -82.5q-35 -32 -80 -32t-80 32q-35 35 -35 82.5z " />
<glyph unicode="&#x408;" horiz-adv-x="409" d="M-131 -301h131q38 0 65 27t27 65v1847h225v-1833q0 -132 -94 -223q-91 -94 -223 -94h-131v211z" />
<glyph unicode="&#x409;" horiz-adv-x="1517" d="M27 0v211h77q38 0 65.5 27t27.5 65v1335h737v-798h92q174 0 297 -123t123 -297t-123 -297t-297 -123h-317v1427h-287v-1110q0 -131 -94 -225q-92 -92 -224 -92h-77zM934 211h92q82 0 138.5 56.5t56.5 138.5v28q0 80 -57 137.5t-138 57.5h-92v-418z" />
<glyph unicode="&#x40a;" horiz-adv-x="1413" d="M92 0v1638h225v-798h287v798h225v-798h93q174 0 297 -123q122 -122 122 -297t-122 -297q-123 -123 -297 -123h-318v629h-287v-629h-225zM829 211h93q80 0 137 57t57 138v28q0 80 -57.5 137.5t-136.5 57.5h-93v-418z" />
<glyph unicode="&#x40b;" horiz-adv-x="1247" d="M49 1427v211h760v-211h-268v-333q91 49 194 49q174 0 297 -123t123 -297v-723h-225v737q0 79 -58 137t-137 58t-134 -54t-60 -133v-745h-226v1427h-266z" />
<glyph unicode="&#x40c;" d="M92 0v1638h225v-694l363 694h254l-356 -680l370 -958h-241l-267 692l-123 -233v-459h-225zM305 1913l361 137l61 -188l-371 -109z" />
<glyph unicode="&#x40e;" horiz-adv-x="962" d="M49 1638h232l190 -788l193 788h231l-356 -1409q-28 -96 -115 -163q-91 -66 -186 -66h-179v211h179q27 0 50.5 19.5t30.5 48.5l33 127zM199 1997v43h182v-43q-6 -42 47.5 -60t106.5 0t47 60v43h182v-43q0 -116 -72.5 -184t-210.5 -68q-137 0 -209.5 68t-72.5 184z" />
<glyph unicode="&#x40f;" d="M92 0v1638h225v-1427h390v1427h225v-1638h-307v-307h-226v307h-307z" />
<glyph unicode="&#x410;" horiz-adv-x="1028" d="M45 0l354 1638h226l358 -1638h-229l-54 246h-374l-52 -246h-229zM369 457h288l-145 692z" />
<glyph unicode="&#x411;" d="M92 0v1638h764v-211h-539v-587h195q174 0 297 -123t123 -297t-123 -297t-297 -123h-420zM317 211h195q80 0 137.5 57t57.5 138v28q0 80 -57.5 137.5t-137.5 57.5h-195v-418z" />
<glyph unicode="&#x412;" d="M92 0v1638h420q175 0 297 -122q123 -123 123 -297v-170q0 -190 -141 -316q141 -126 141 -313q0 -174 -123 -297t-297 -123h-420zM317 211h195q80 0 137.5 57t57.5 138v28q0 80 -57.5 137.5t-137.5 57.5h-195v-418zM317 840h203q79 5 133 60t54 134v199q0 79 -57.5 136.5 t-137.5 57.5h-195v-587z" />
<glyph unicode="&#x413;" horiz-adv-x="849" d="M92 0v1638h715v-211h-490v-1427h-225z" />
<glyph unicode="&#x414;" horiz-adv-x="1269" d="M72 211h133l307 1427h532v-1427h154v-467h-225v256h-676v-256h-225v467zM436 211h383v1216h-123z" />
<glyph unicode="&#x415;" horiz-adv-x="860" d="M92 0v1638h684v-211h-459v-759h357v-209h-357v-248h459v-211h-684z" />
<glyph unicode="&#x416;" horiz-adv-x="1638" d="M76 0l368 958l-354 680h254l363 -694v694h225v-694l362 694h254l-356 -680l371 -958h-242l-266 692l-123 -233v-459h-225v459l-123 233l-267 -692h-241z" />
<glyph unicode="&#x417;" d="M92 403v74h225v-88q0 -81 57.5 -137.5t137.5 -56.5q82 0 138.5 56t56.5 138v143q0 80 -57 137.5t-138 57.5h-213v211h213q81 0 138 57.5t57 137.5v116q0 82 -56.5 138.5t-138.5 56.5q-80 0 -137.5 -57t-57.5 -138v-88h-225v74q0 174 123 297t297 123q177 0 297 -123 q123 -123 123 -297v-88q0 -190 -141 -316q141 -126 141 -313v-115q0 -174 -123 -297q-119 -122 -297 -122q-175 0 -297 122q-123 123 -123 297z" />
<glyph unicode="&#x418;" horiz-adv-x="1075" d="M92 0v1638h225v-1054l441 1054h225v-1638h-225v1053l-441 -1053h-225z" />
<glyph unicode="&#x419;" horiz-adv-x="1075" d="M92 0v1638h225v-1054l441 1054h225v-1638h-225v1053l-441 -1053h-225zM254 1997v43h182v-43q-6 -42 47 -60t106.5 0t47.5 60v43h182v-43q0 -116 -72.5 -184t-209.5 -68q-138 0 -210.5 68t-72.5 184z" />
<glyph unicode="&#x41a;" d="M92 0v1638h225v-694l363 694h254l-356 -680l370 -958h-241l-267 692l-123 -233v-459h-225z" />
<glyph unicode="&#x41b;" horiz-adv-x="1128" d="M27 0v211h77q38 0 65.5 27t27.5 65v1335h839v-1638h-225v1427h-389v-1110q0 -131 -94 -225q-92 -92 -224 -92h-77z" />
<glyph unicode="&#x41c;" horiz-adv-x="1126" d="M92 0v1638h225l246 -421l246 421h225v-1638h-225v1190l-133 -229h-225l-134 229v-1190h-225z" />
<glyph unicode="&#x41d;" d="M92 0v1638h225v-970h390v970h225v-1638h-225v459h-390v-459h-225z" />
<glyph unicode="&#x41e;" d="M92 403v832q0 174 123 297t297 123t297 -123t123 -297v-832q0 -174 -123 -297q-122 -122 -297 -122q-177 0 -299 122q-121 124 -121 297zM317 389q0 -82 56.5 -138t138.5 -56q80 0 137.5 56.5t57.5 137.5v860q0 79 -57.5 137t-137.5 58q-81 0 -138 -57.5t-57 -137.5v-860 z" />
<glyph unicode="&#x41f;" d="M92 0v1638h840v-1638h-225v1427h-390v-1427h-225z" />
<glyph unicode="&#x420;" d="M92 0v1638h420q175 0 297 -122q123 -123 123 -297v-340q0 -174 -123 -297t-297 -123h-195v-459h-225zM317 668h195q80 0 137.5 57.5t57.5 136.5v371q0 79 -57.5 136.5t-137.5 57.5h-195v-759z" />
<glyph unicode="&#x421;" d="M92 403v832q0 174 123 297t297 123t297 -123t123 -297v-74h-225v88q0 79 -57.5 137t-137.5 58q-81 0 -138 -57.5t-57 -137.5v-860q0 -82 56.5 -138t138.5 -56q80 0 137.5 56.5t57.5 137.5v88h225v-74q0 -174 -123 -297q-122 -122 -297 -122q-177 0 -299 122 q-121 124 -121 297z" />
<glyph unicode="&#x422;" horiz-adv-x="858" d="M49 1427v211h760v-211h-268v-1427h-226v1427h-266z" />
<glyph unicode="&#x423;" horiz-adv-x="962" d="M49 1638h232l190 -788l193 788h231l-356 -1409q-28 -96 -115 -163q-91 -66 -186 -66h-179v211h179q27 0 50.5 19.5t30.5 48.5l33 127z" />
<glyph unicode="&#x424;" horiz-adv-x="1392" d="M72 602v434q0 174 123 297t297 123h92v182h225v-182h92q174 0 297 -123t123 -297v-434q0 -174 -123 -297t-297 -123h-92v-182h-225v182h-92q-174 0 -297 123t-123 297zM297 588q0 -80 57.5 -137.5t137.5 -57.5h92v852h-92q-80 0 -137.5 -56.5t-57.5 -137.5v-463zM809 393 h92q79 0 137 57.5t58 137.5v463q0 81 -57.5 137.5t-137.5 56.5h-92v-852z" />
<glyph unicode="&#x425;" d="M76 0l315 840l-299 798h240l180 -481l180 481h240l-301 -798l317 -840h-241l-195 518l-195 -518h-241z" />
<glyph unicode="&#x426;" horiz-adv-x="1177" d="M92 0v1638h225v-1427h390v1427h225v-1427h205v-467h-226v256h-819z" />
<glyph unicode="&#x427;" d="M92 868v770h225v-784q0 -82 56.5 -138.5t138.5 -56.5q80 0 137.5 57t57.5 138v784h225v-1638h-225v496q-89 -47 -195 -47q-175 0 -297 122q-123 123 -123 297z" />
<glyph unicode="&#x428;" horiz-adv-x="1331" d="M92 0v1638h225v-1427h236v1427h225v-1427h236v1427h225v-1638h-1147z" />
<glyph unicode="&#x429;" horiz-adv-x="1484" d="M92 0v1638h225v-1427h236v1427h225v-1427h236v1427h225v-1427h205v-467h-225v256h-1127z" />
<glyph unicode="&#x42a;" horiz-adv-x="1107" d="M27 1427v211h395v-798h194q174 0 297 -123t123 -297t-123 -297t-297 -123h-419v1427h-170zM422 211h194q82 0 138.5 56.5t56.5 138.5v28q0 80 -57 137.5t-138 57.5h-194v-418z" />
<glyph unicode="&#x42b;" horiz-adv-x="1382" d="M92 0v1638h225v-798h195q174 0 297 -123t123 -297t-123 -297t-297 -123h-420zM317 211h195q80 0 137.5 57t57.5 138v28q0 80 -57.5 137.5t-137.5 57.5h-195v-418zM1065 0v1638h225v-1638h-225z" />
<glyph unicode="&#x42c;" d="M92 0v1638h225v-798h195q174 0 297 -123t123 -297t-123 -297t-297 -123h-420zM317 211h195q80 0 137.5 57t57.5 138v28q0 80 -57.5 137.5t-137.5 57.5h-195v-418z" />
<glyph unicode="&#x42d;" d="M92 403v74h225v-88q0 -81 57.5 -137.5t137.5 -56.5q82 0 138.5 56t56.5 138v295h-357v209h357v356q0 80 -57 137.5t-138 57.5q-80 0 -137.5 -58t-57.5 -137v-88h-225v74q0 174 123 297t297 123t297 -123t123 -297v-832q0 -174 -123 -297q-119 -122 -297 -122 q-175 0 -297 122q-123 123 -123 297z" />
<glyph unicode="&#x42e;" horiz-adv-x="1382" d="M92 0v1638h225v-970h134v567q0 175 122 297q123 123 297 123t297 -123t123 -297v-832q0 -174 -123 -297q-122 -122 -297 -122t-297 122t-122 297v56h-134v-459h-225zM676 389q0 -82 56 -138t138 -56q80 0 137.5 56.5t57.5 137.5v860q0 79 -57.5 137t-137.5 58 q-81 0 -137.5 -57.5t-56.5 -137.5v-860z" />
<glyph unicode="&#x42f;" d="M92 0v248q0 189 141 315q-141 126 -141 316v340q0 174 123 297q122 122 297 122h420v-1638h-225v459h-203q-77 -3 -131 -60q-56 -59 -56 -135v-264h-225zM317 862q0 -78 54.5 -133.5t132.5 -60.5h203v759h-195q-80 0 -137.5 -57.5t-57.5 -136.5v-371z" />
<glyph unicode="&#x430;" horiz-adv-x="800" d="M45 205l244 1229h225l242 -1229h-211l-39 205h-211l-39 -205h-211zM336 621h129l-64 333z" />
<glyph unicode="&#x431;" horiz-adv-x="819" d="M92 205v1229h559v-211h-334v-383h93q131 0 223 -95q94 -91 94 -223q0 -131 -94 -225q-92 -92 -223 -92h-318zM317 416h93q38 0 65 27t27 65v29q0 38 -27 65t-65 27h-93v-213z" />
<glyph unicode="&#x432;" horiz-adv-x="819" d="M92 205v1229h318q131 0 223 -95q94 -91 94 -223v-170q0 -122 -82 -213q82 -88 82 -211q0 -131 -94 -225q-92 -92 -223 -92h-318zM317 416h93q38 0 65 27t27 65v29q0 35 -25 61t-61 31h-99v-213zM317 840h99q36 5 61 30.5t25 61.5v198q0 38 -27 65.5t-65 27.5h-93v-383z " />
<glyph unicode="&#x433;" horiz-adv-x="657" d="M92 205v1229h522v-211h-297v-1018h-225z" />
<glyph unicode="&#x434;" horiz-adv-x="1064" d="M72 0v416h133l153 1018h482v-1018h153v-416h-225v205h-471v-205h-225zM432 416h182v807h-59z" />
<glyph unicode="&#x435;" horiz-adv-x="698" d="M92 205v1229h522v-211h-297v-463h246v-209h-246v-135h297v-211h-522z" />
<glyph unicode="&#x436;" horiz-adv-x="1228" d="M76 205l241 713l-241 516h248l178 -379v379h225v-379l178 379h248l-244 -516l244 -713h-238l-143 420l-45 -99v-321h-225v321l-45 99l-144 -420h-237z" />
<glyph unicode="&#x437;" horiz-adv-x="819" d="M92 506v80h225v-94q-4 -56 44 -79.5t96.5 0t44.5 79.5v131q0 35 -25 61t-61 31h-109v209h103q38 0 65 27.5t27 64.5v131q4 56 -44 79.5t-96.5 0t-44.5 -79.5v-94h-225v80q0 131 92 223q94 94 226 94t223 -94q94 -91 94 -223v-101q0 -125 -82 -213q82 -91 82 -213v-100 q0 -131 -94 -225q-93 -93 -223 -93t-226 93q-92 95 -92 225z" />
<glyph unicode="&#x438;" horiz-adv-x="870" d="M92 205v1229h225v-637l236 637h225v-1229h-225v635l-236 -635h-225z" />
<glyph unicode="&#x439;" horiz-adv-x="870" d="M92 205v1229h225v-637l236 637h225v-1229h-225v635l-236 -635h-225zM152 1792v43h182v-43q-6 -42 47 -60t106.5 0t47.5 60v43h182v-43q0 -116 -72.5 -184t-210.5 -68q-137 0 -209.5 68t-72.5 184z" />
<glyph unicode="&#x43a;" horiz-adv-x="819" d="M92 205v1229h225v-379l179 379h247l-243 -516l243 -713h-237l-144 420l-45 -99v-321h-225z" />
<glyph unicode="&#x43b;" horiz-adv-x="870" d="M8 205v211h43q38 0 65 27t27 65v926h635v-1229h-225v1018h-184v-701q0 -130 -95 -225q-92 -92 -223 -92h-43z" />
<glyph unicode="&#x43c;" horiz-adv-x="921" d="M92 205v1229h225l144 -299l143 299h225v-1229h-225v741l-45 -86h-197l-45 86v-741h-225z" />
<glyph unicode="&#x43d;" horiz-adv-x="819" d="M92 205v1229h225v-674h185v674h225v-1229h-225v346h-185v-346h-225z" />
<glyph unicode="&#x43e;" horiz-adv-x="819" d="M92 506v627q0 131 92 223q94 94 226 94t223 -94q94 -91 94 -223v-627q0 -131 -94 -225q-93 -93 -223 -93t-226 93q-92 95 -92 225zM317 492q-4 -56 44 -79.5t96.5 0t44.5 79.5v655q4 56 -44 79.5t-96.5 0t-44.5 -79.5v-655z" />
<glyph unicode="&#x43f;" horiz-adv-x="819" d="M92 205v1229h635v-1229h-225v1018h-185v-1018h-225z" />
<glyph unicode="&#x440;" horiz-adv-x="819" d="M92 205v1229h318q131 0 223 -95q94 -91 94 -223v-248q0 -131 -94 -225q-92 -92 -223 -92h-93v-346h-225zM317 760h93q38 0 65 27.5t27 64.5v278q0 38 -27 65.5t-65 27.5h-93v-463z" />
<glyph unicode="&#x441;" horiz-adv-x="819" d="M92 506v627q0 131 92 223q94 94 226 94t223 -94q94 -91 94 -223v-117h-225v131q4 56 -44 79.5t-96.5 0t-44.5 -79.5v-655q-4 -56 44 -79.5t96.5 0t44.5 79.5v131h225v-117q0 -131 -94 -225q-93 -93 -223 -93t-226 93q-92 95 -92 225z" />
<glyph unicode="&#x442;" horiz-adv-x="653" d="M49 1223v211h555v-211h-166v-1018h-225v1018h-164z" />
<glyph unicode="&#x443;" horiz-adv-x="782" d="M57 205v225h176q18 0 21 14l33 121l-228 869h209l135 -529l134 529h208l-274 -1047q-21 -75 -90 -129q-71 -53 -148 -53h-176z" />
<glyph unicode="&#x444;" horiz-adv-x="1105" d="M72 690v258q0 131 92 223q95 95 225 95h51v168h226v-168h51q131 0 223 -95q94 -91 94 -223v-258q0 -131 -94 -225q-92 -92 -223 -92h-51v-168h-226v168h-51q-130 0 -225 92q-92 95 -92 225zM297 676q0 -38 27 -65t65 -27h51v471h-51q-38 0 -65 -27t-27 -65v-287zM666 584 h51q38 0 65 27t27 65v287q0 38 -27 65t-65 27h-51v-471z" />
<glyph unicode="&#x445;" horiz-adv-x="819" d="M92 205l207 614l-207 615h238l88 -263l88 263h237l-206 -615l206 -614h-237l-88 260l-88 -260h-238z" />
<glyph unicode="&#x446;" horiz-adv-x="1054" d="M92 205v1229h225v-1018h236v1018h225v-1018h205v-467h-225v256h-666z" />
<glyph unicode="&#x447;" horiz-adv-x="819" d="M92 852v582h225v-596q0 -38 27.5 -65.5t65.5 -27.5q36 0 63.5 24.5t28.5 59.5v605h225v-1229h-225v342q-44 -12 -92 -12q-131 0 -226 92q-92 95 -92 225z" />
<glyph unicode="&#x448;" horiz-adv-x="1228" d="M92 205v1229h225v-1018h185v1018h225v-1018h184v1018h226v-1229h-1045z" />
<glyph unicode="&#x449;" horiz-adv-x="1361" d="M92 205v1229h225v-1018h185v1018h225v-1018h184v1018h226v-1018h153v-467h-225v256h-973z" />
<glyph unicode="&#x44a;" horiz-adv-x="849" d="M8 1223v211h361v-594h92q131 0 223 -95q94 -91 94 -223q0 -131 -94 -225q-92 -92 -223 -92h-318v1018h-135zM369 416h92q38 0 65 27t27 65v29q0 38 -27 65t-65 27h-92v-213z" />
<glyph unicode="&#x44b;" horiz-adv-x="1144" d="M92 205v1229h225v-594h93q131 0 223 -95q94 -91 94 -223q0 -131 -94 -225q-92 -92 -223 -92h-318zM317 416h93q38 0 65 27t27 65v29q0 38 -27 65t-65 27h-93v-213zM809 205v1229h225v-1229h-225z" />
<glyph unicode="&#x44c;" horiz-adv-x="798" d="M92 205v1229h225v-594h93q131 0 223 -95q94 -91 94 -223q0 -131 -94 -225q-92 -92 -223 -92h-318zM317 416h93q38 0 65 27t27 65v29q0 38 -27 65t-65 27h-93v-213z" />
<glyph unicode="&#x44d;" horiz-adv-x="819" d="M92 506v117h225v-131q-4 -56 44 -79.5t96.5 0t44.5 79.5v219h-246v211h246v225q4 56 -44 79.5t-96.5 0t-44.5 -79.5v-131h-225v117q0 131 92 223q94 94 226 94t223 -94q94 -91 94 -223v-627q0 -131 -94 -225q-93 -93 -223 -93t-226 93q-92 95 -92 225z" />
<glyph unicode="&#x44e;" horiz-adv-x="1157" d="M92 205v1229h225v-674h113v373q0 131 92 223q94 94 226 94t223 -94q94 -91 94 -223v-627q0 -131 -94 -225q-93 -93 -223 -93t-226 93q-92 95 -92 225v45h-113v-346h-225zM655 492q-4 -56 44.5 -79.5t96.5 0t44 79.5v655q4 56 -44 79.5t-96.5 0t-44.5 -79.5v-655z" />
<glyph unicode="&#x44f;" horiz-adv-x="819" d="M92 205v237q0 122 82 213q-82 88 -82 213v248q0 131 92 223q95 95 226 95h317v-1229h-225v346h-92q-38 0 -65.5 -27.5t-27.5 -64.5v-254h-225zM317 852q0 -37 27.5 -64.5t65.5 -27.5h92v463h-92q-38 0 -65.5 -27.5t-27.5 -65.5v-278z" />
<glyph unicode="&#x451;" horiz-adv-x="698" d="M89 1690q0 47 32 79q35 35 82.5 35t79.5 -35q35 -32 35 -79t-35 -82q-32 -32 -79.5 -32t-82.5 32q-32 35 -32 82zM92 205v1229h522v-211h-297v-463h246v-209h-246v-135h297v-211h-522zM396 1690q0 47 32 79q35 35 82.5 35t79.5 -35q35 -32 35 -79t-35 -82 q-32 -32 -79.5 -32t-82.5 32q-32 35 -32 82z" />
<glyph unicode="&#x452;" horiz-adv-x="940" d="M49 1223v211h555v-211h-166v-197q38 14 92 14q133 0 224 -94q94 -91 94 -223v-201q0 -131 -94 -225q-92 -92 -224 -92h-20v211h20q38 0 65.5 27t27.5 65v229q4 56 -44.5 79.5t-96.5 0t-44 -79.5v-532h-225v1018h-164z" />
<glyph unicode="&#x453;" horiz-adv-x="657" d="M92 205v1229h522v-211h-297v-1018h-225zM143 1708l361 137l61 -188l-370 -109z" />
<glyph unicode="&#x454;" horiz-adv-x="819" d="M92 506v627q0 131 92 223q94 94 226 94t223 -94q94 -91 94 -223v-117h-225v131q4 56 -44 79.5t-96.5 0t-44.5 -79.5v-225h246v-211h-246v-219q-4 -56 44 -79.5t96.5 0t44.5 79.5v131h225v-117q0 -131 -94 -225q-93 -93 -223 -93t-226 93q-92 95 -92 225z" />
<glyph unicode="&#x455;" horiz-adv-x="798" d="M82 506v94h225v-108q-4 -56 44 -79.5t96.5 0t44.5 79.5v14q0 27 -15 51l-305 354q-90 96 -90 222q0 131 92 223q94 94 225 94q133 0 224 -94q94 -91 94 -223v-95h-225v109q4 56 -44 79.5t-96.5 0t-44.5 -79.5v-14q0 -27 19 -56l303 -356q88 -88 88 -215q0 -131 -94 -225 q-93 -93 -224 -93q-129 0 -225 93q-92 95 -92 225z" />
<glyph unicode="&#x456;" horiz-adv-x="444" d="M111 205v1229h225v-1229h-225z" />
<glyph unicode="&#x457;" horiz-adv-x="444" d="M-45 1690q0 47 35 79q35 35 80 35t80 -35q35 -32 35 -79t-35 -82q-35 -32 -80 -32t-80 32q-35 35 -35 82zM111 205v1229h225v-1229h-225zM262 1690q0 47 35 79q35 35 80 35t80 -35q35 -32 35 -79t-35 -82q-35 -32 -80 -32t-80 32q-35 35 -35 82z" />
<glyph unicode="&#x458;" horiz-adv-x="409" d="M-80 92h80q38 0 65 27t27 65v1250h225v-1235q0 -133 -94 -224q-91 -94 -223 -94h-80v211z" />
<glyph unicode="&#x459;" horiz-adv-x="1280" d="M29 205v211h43q38 0 65 27t27 65v926h635v-594h92q131 0 223 -95q94 -91 94 -223q0 -131 -94 -225q-92 -92 -223 -92h-318v1018h-184v-701q0 -131 -94 -225q-92 -92 -223 -92h-43zM799 416h92q38 0 65 27t27 65v29q0 38 -27 65t-65 27h-92v-213z" />
<glyph unicode="&#x45a;" horiz-adv-x="1208" d="M92 205v1229h225v-594h185v594h225v-594h92q131 0 223 -95q95 -92 95 -223q0 -130 -95 -225q-92 -92 -223 -92h-317v424h-185v-424h-225zM727 416h92q38 0 65 27t27 65v29q0 38 -27 65t-65 27h-92v-213z" />
<glyph unicode="&#x45b;" horiz-adv-x="940" d="M49 1223v211h555v-211h-166v-197q38 14 92 14q133 0 224 -94q94 -91 94 -223v-518h-225v532q4 56 -44.5 79.5t-96.5 0t-44 -79.5v-532h-225v1018h-164z" />
<glyph unicode="&#x45c;" horiz-adv-x="819" d="M92 205v1229h225v-379l179 379h247l-243 -516l243 -713h-237l-144 420l-45 -99v-321h-225zM199 1708l360 137l62 -188l-371 -109z" />
<glyph unicode="&#x45e;" horiz-adv-x="804" d="M57 205v225h176q18 0 21 14l33 121l-228 869h209l135 -529l134 529h208l-274 -1047q-21 -75 -90 -129q-71 -53 -148 -53h-176zM119 1792v43h182v-43q-6 -42 47.5 -60t106.5 0t47 60v43h182v-43q0 -116 -72.5 -184t-210.5 -68q-137 0 -209.5 68t-72.5 184z" />
<glyph unicode="&#x45f;" horiz-adv-x="819" d="M92 205v1229h225v-1018h185v1018h225v-1229h-205v-205h-225v205h-205z" />
<glyph unicode="&#x462;" horiz-adv-x="1247" d="M49 1427v211h760v-211h-268v-587h194q174 0 297 -123t123 -297t-123 -297t-297 -123h-420v1427h-266zM541 211h194q80 0 137.5 57t57.5 138v28q0 80 -58 137.5t-137 57.5h-194v-418z" />
<glyph unicode="&#x463;" horiz-adv-x="919" d="M49 1223v211h555v-211h-166v-383h92q132 0 224 -95q94 -91 94 -223q0 -131 -94 -225q-92 -92 -224 -92h-317v1018h-164zM438 416h92q38 0 65.5 27t27.5 65v29q0 38 -27.5 65t-65.5 27h-92v-213z" />
<glyph unicode="&#x472;" d="M92 403v832q0 174 123 297t297 123t297 -123t123 -297v-832q0 -174 -123 -297q-122 -122 -297 -122q-177 0 -299 122q-121 124 -121 297zM317 389q0 -82 56.5 -138t138.5 -56q80 0 137.5 56.5t57.5 137.5v27q-37 0 -64 6l-309 78h-17v-111zM317 709h19q9 0 45 -4l311 -78 q2 -2 15 -2v624q0 79 -57.5 137t-137.5 58q-81 0 -138 -57.5t-57 -137.5v-540z" />
<glyph unicode="&#x473;" horiz-adv-x="819" d="M92 506v627q0 131 92 223q94 94 226 94t223 -94q94 -91 94 -223v-627q0 -131 -94 -225q-93 -93 -223 -93t-226 93q-92 95 -92 225zM317 492q-4 -56 44 -79.5t96.5 0t44.5 79.5v30q-45 3 -82 21l-103 51v-102zM317 807q46 0 82 -19l103 -51v410q4 56 -44 79.5t-96.5 0 t-44.5 -79.5v-340z" />
<glyph unicode="&#x474;" horiz-adv-x="968" d="M45 1638h229l211 -1046l209 1046h228l-324 -1638h-225z" />
<glyph unicode="&#x475;" horiz-adv-x="800" d="M45 1434h211l145 -750l144 750h211l-242 -1229h-225z" />
<glyph unicode="&#x490;" horiz-adv-x="849" d="M92 0v1638h490v256h225v-467h-490v-1427h-225z" />
<glyph unicode="&#x491;" horiz-adv-x="657" d="M92 205v1229h297v204h225v-415h-297v-1018h-225z" />
<glyph unicode="&#x4d9;" horiz-adv-x="819" d="M92 506v342h410v299q4 56 -44 79.5t-96.5 0t-44.5 -79.5v-131h-225v117q0 131 92 223q94 94 226 94t223 -94q94 -91 94 -223v-627q0 -131 -94 -225q-93 -93 -223 -93t-226 93q-92 95 -92 225zM317 492q-4 -56 44 -79.5t96.5 0t44.5 79.5v145h-185v-145z" />
<glyph unicode="&#x2000;" horiz-adv-x="1025" />
<glyph unicode="&#x2001;" horiz-adv-x="2050" />
<glyph unicode="&#x2002;" horiz-adv-x="1025" />
<glyph unicode="&#x2003;" horiz-adv-x="2050" />
<glyph unicode="&#x2004;" horiz-adv-x="683" />
<glyph unicode="&#x2005;" horiz-adv-x="512" />
<glyph unicode="&#x2006;" horiz-adv-x="341" />
<glyph unicode="&#x2007;" horiz-adv-x="341" />
<glyph unicode="&#x2008;" horiz-adv-x="256" />
<glyph unicode="&#x2009;" horiz-adv-x="410" />
<glyph unicode="&#x200a;" horiz-adv-x="113" />
<glyph unicode="&#x2010;" horiz-adv-x="626" d="M57 666v211h512v-211h-512z" />
<glyph unicode="&#x2011;" horiz-adv-x="626" d="M57 666v211h512v-211h-512z" />
<glyph unicode="&#x2012;" horiz-adv-x="626" d="M57 666v211h512v-211h-512z" />
<glyph unicode="&#x2013;" horiz-adv-x="716" d="M57 666v211h602v-211h-602z" />
<glyph unicode="&#x2014;" horiz-adv-x="1126" d="M57 666v211h1012v-211h-1012z" />
<glyph unicode="&#x2018;" horiz-adv-x="409" d="M92 1049v137q0 61 17 122.5t38 96.5l19 29h151v-385h-225z" />
<glyph unicode="&#x2019;" horiz-adv-x="409" d="M92 1049v385h225v-136q0 -61 -17 -124t-38 -97l-18 -28h-152z" />
<glyph unicode="&#x201a;" horiz-adv-x="409" d="M92 205v385h225v-137q0 -61 -17 -123t-38 -97l-18 -28h-152z" />
<glyph unicode="&#x201c;" horiz-adv-x="768" d="M92 1049v137q0 61 17 122.5t38 96.5l19 29h151v-385h-225zM451 1049v137q0 61 17 122.5t38 96.5l18 29h152v-385h-225z" />
<glyph unicode="&#x201d;" horiz-adv-x="768" d="M92 1049v385h225v-136q0 -61 -17 -124t-38 -97l-18 -28h-152zM451 1049v385h225v-136q0 -61 -17 -124t-38 -97l-19 -28h-151z" />
<glyph unicode="&#x201e;" horiz-adv-x="768" d="M92 205v385h225v-137q0 -61 -17 -123t-38 -97l-18 -28h-152zM451 205v385h225v-137q0 -61 -17 -123t-38 -97l-19 -28h-151z" />
<glyph unicode="&#x2026;" horiz-adv-x="1249" d="M76 319q0 54 37 91q38 37 91.5 37t90.5 -37q38 -37 38 -91t-38 -92q-37 -37 -90.5 -37t-91.5 37q-37 38 -37 92zM475 319q0 54 37 91q38 37 91.5 37t90.5 -37q38 -37 38 -91t-38 -92q-37 -37 -90.5 -37t-91.5 37q-37 38 -37 92zM874 319q0 54 37 91q38 37 92 37t91 -37 q38 -37 38 -91t-38 -92q-37 -37 -91 -37t-92 37q-37 38 -37 92z" />
<glyph unicode="&#x202f;" horiz-adv-x="410" />
<glyph unicode="&#x2039;" horiz-adv-x="751" d="M70 819l417 631l191 -123l-338 -508l338 -508l-191 -123z" />
<glyph unicode="&#x203a;" horiz-adv-x="751" d="M70 311l338 508l-338 508l188 123l420 -631l-420 -631z" />
<glyph unicode="&#x205f;" horiz-adv-x="512" />
<glyph unicode="&#x20ac;" horiz-adv-x="1236" d="M29 555v211h63q-2 10 -2 53q0 46 2 60h-63v211h121q74 159 231 260q150 100 340 100q257 0 444 -184l-149 -150q-123 123 -295 123q-192 0 -311 -149h454v-211h-545q-4 -28 -4 -60q0 -43 2 -53h428v-211h-342q120 -156 318 -156q175 0 295 123l149 -149 q-185 -185 -444 -185q-190 0 -344 101q-155 104 -230 266h-118z" />
<glyph unicode="&#x2122;" horiz-adv-x="1349" d="M49 1427v211h475v-211h-125v-772h-225v772h-125zM623 655v983h225l92 -206l92 206h225v-983h-225v502h-184v-502h-225z" />
<glyph unicode="&#x25fc;" horiz-adv-x="1433" d="M0 0v1434h1434v-1434h-1434z" />
</font>
</defs>
</svg>
